<svg xmlns="http://www.w3.org/2000/svg" viewBox="0 0 256 256">

  <rect
    x="8"
    y="8"
    width="240"
    height="240"
    rx="48"
    fill="white"/>

  <!-- Orange L -->

  <path
    d="M60 50
       H90
       V175
       H160
       V205
       H60
       Z"
    fill="#FF7A00"/>

  <!-- Black G -->

  <path
    d="
      M205 70
      C195 55 175 45 150 45
      C100 45 70 80 70 128
      C70 176 100 211 150 211
      C190 211 218 186 218 150

      H170
      V122

      H246

      V205

      H218

      V188

      C202 202 180 210 152 210

      C117 210 96 180 96 128

      C96 76 118 46 152 46

      C173 46 191 55 202 71

      Z"
    fill="#111111"/>

</svg>