<svg xmlns="http://www.w3.org/2000/svg"
     viewBox="0 0 256 256">

  <!-- Background -->
  <rect
      x="8"
      y="8"
      width="240"
      height="240"
      rx="42"
      fill="#FFFFFF"/>

  <!-- Orange L -->
  <path
      fill="#FF6A00"
      d="
      M48 48
      H90
      V178
      H170
      V214
      H48
      Z
      "/>

  <!-- Black G -->
  <path
      fill="#111111"
      d="
      M198 48

      C222 48 238 64 238 88

      V168

      C238 194 221 210 195 210

      H150

      C124 210 108 194 108 168

      V88

      C108 64 124 48 150 48

      Z

      M150 82

      C143 82 140 85 140 92

      V164

      C140 171 143 176 150 176

      H206

      V138

      H168

      V112

      H206

      V82

      Z
      "/>

</svg>